<svg width="19" height="13" viewBox="0 0 19 13" xmlns="http://www.w3.org/2000/svg"><title>1D497CB3-F72A-4D1C-AB80-04A32F3E427C</title><defs><linearGradient x1="50.001%" y1="99.999%" x2="50.001%" y2="0%" id="a"><stop stop-color="#E6C60D" offset="0%"/><stop stop-color="#F2D600" offset="100%"/></linearGradient></defs><path d="M16.861 4.802a1.2 1.2 0 0 1 .815-1.95c.651-.059 1.231.431 1.29 1.088a1.2 1.2 0 0 1-1.077 1.302c-.2.019-.395-.016-.569-.09-.578 1.422-1.486 3.81-1.413 4.628l.188 2.114s-3.423-.091-5.949.138l-5.868.933-.198-2.113c-.07-.787-1.29-2.835-2.115-4.144a1.247 1.247 0 0 1-.673.197A1.269 1.269 0 0 1 .03 5.629c0-.704.565-1.275 1.262-1.275.697 0 1.262.571 1.262 1.275 0 .18-.036.35-.102.505 1.445.662 3.74 1.64 4.528 1.569.838-.076 1.596-3.306 1.967-5.18a1.274 1.274 0 0 1-.944-1.235c0-.704.565-1.275 1.262-1.275.697 0 1.262.571 1.262 1.275 0 .521-.309.969-.752 1.167.869 1.763 2.478 4.77 3.315 4.694.796-.072 2.646-1.452 3.771-2.347zM14.1 9.562c.04.438-.327.903-.79.945-.483.044-.945-.346-.984-.784a.93.93 0 0 1 .825-1.008c.463-.043.904.329.95.847zm-6.505.58c.04.448-.327.913-.829.958-.444.04-.906-.35-.945-.797-.045-.508.342-.955.786-.995a.911.911 0 0 1 .988.834zm3.518-.65a1.204 1.204 0 0 1-1.085 1.313c-.67.06-1.221-.442-1.28-1.099a1.183 1.183 0 0 1 1.068-1.291c.67-.061 1.24.44 1.297 1.077z" fill="url(#a)" fill-rule="evenodd"/></svg>