<svg width="148" height="148" viewBox="0 0 148 148" xmlns="http://www.w3.org/2000/svg" xmlns:sketch="http://www.bohemiancoding.com/sketch/ns"><title>box-preview-logo</title><path d="M78.138 58.255c-8.184 0-15.291 4.688-18.882 11.569-3.591-6.882-10.698-11.569-18.882-11.569-4.81 0-9.249 1.62-12.821 4.352v-18.341h-.002c-.05-2.364-1.943-4.266-4.275-4.266-2.333 0-4.225 1.902-4.275 4.266h-.002v36.124h.009c.19 11.858 9.68 21.414 21.366 21.414 8.184 0 15.291-4.688 18.882-11.57 3.591 6.882 10.698 11.57 18.882 11.57 11.805 0 21.375-9.749 21.375-21.774 0-12.026-9.57-21.775-21.375-21.775zm50.128 36.697l-10.947-14.906 10.947-14.906-.002-.001c1.354-1.92.962-4.599-.904-6.026-1.865-1.427-4.5-1.064-5.932.795l-.001-.001-9.448 12.866-9.447-12.866-.002.002c-1.433-1.861-4.068-2.223-5.933-.796-1.865 1.427-2.258 4.106-.903 6.026l-.002.001 10.946 14.906-10.946 14.906.002.001c-1.355 1.92-.962 4.599.903 6.026 1.865 1.427 4.5 1.065 5.933-.796l.002.002 9.447-12.866 9.448 12.866.001-.001c1.433 1.86 4.068 2.222 5.932.796 1.865-1.427 2.258-4.106.904-6.027l.002-.001zm-50.128-1.862c-7.081 0-12.82-5.848-12.82-13.061 0-7.214 5.74-13.061 12.82-13.061 7.081 0 12.821 5.847 12.821 13.061 0 7.213-5.741 13.061-12.821 13.061zm-37.764 0c-7.081 0-12.821-5.848-12.821-13.061 0-7.214 5.74-13.061 12.821-13.061 7.081 0 12.821 5.847 12.821 13.061 0 7.213-5.74 13.061-12.821 13.061z" sketch:type="MSShapeGroup" fill="#A8A8A8"/></svg>