<svg width="148" height="148" viewBox="0 0 148 148" xmlns="http://www.w3.org/2000/svg" xmlns:sketch="http://www.bohemiancoding.com/sketch/ns"><title>fogbugz-preview-logo</title><path d="M83.206 44.845c-.118-.73-1.52-1.82-1.52-1.82s1.349-.476 2.605 1.67h.294s.271-1.648-.965-2.763-2.98-1.739-2.98-1.739 3.138.18 4.208 1.862c.135-1.281-.309-3.317-.309-3.317s1.444 3.317 1.361 4.357c.48-1.097 1.084-1.427 1.746-1.705.663-.278 1.563.149 1.563.149s-1.169.039-1.939.831c-.77.792-.898 2.324-.898 2.324s9.193.502 12.202 8.671c3.009 8.168-.613 12.766-.613 12.766s4.477 2.809 6.612 8.899c.945 2.696 1.748 5.403 1.708 6.797-.051 1.755-1.145 1.903-1.145 1.903s-3.04-6.108-5.09-8.798c-2.05-2.69-4.367-4.003-5.092-4.48-2.509 1.89-7.451 3.116-8.746 3.116-.966 3.085-.599 6.556-.852 8.356-.253 1.8-1.065 2.779-.967 3.435.099.656 1.983 2.711 2.443 4.454.461 1.743.248 4.05 0 5.197 1.434.382 2.473.905 2.473.905s-.036-2.32.702-4.144c.738-1.824 1.048-3.631 2.42-3.464 1.371.167 1.103 4.192 1.103 4.192s4.098-5.541 6.057-4.192c1.959 1.349-2.535 7.695-2.535 7.695s4.497-1.893 5.076.13c.578 2.023-9.042 6.325-9.042 6.325s-1.175 1.995-3.782.7c-2.607-1.295-2.612-3.245-2.612-3.245s-2.403-.542-2.829-.766c-3.225 1.256-7.448 0-7.448 0-.452 1.882-7.108 8.51-7.108 8.51s-.997 2.256-3.782 1.279c-2.785-.977-2.826-3.39-2.826-3.39s-3.102-2.057-3.57-2.993c0 0-1.883-.106-3.167-1.186-1.284-1.081-1.914-3.006-1.914-3.006s-4.838-.945-8.763-3.116c-3.925-2.171-5.017-3.361-5.29-5.555-.273-2.194 4.851-7.607 4.851-7.607s-.994-4.773 1.793-10.873c2.787-6.099 6.471-8.162 8.139-9.158 1.668-.996 8.25-1.944 11.779-3.518 3.529-1.573 5.113-6.298 8.131-9.174 3.018-2.876 4.789-3.85 8.518-4.516z" sketch:type="MSShapeGroup" fill="#A6A6A6"/></svg>