<svg width="148" height="148" viewBox="0 0 148 148" xmlns="http://www.w3.org/2000/svg" xmlns:sketch="http://www.bohemiancoding.com/sketch/ns"><title>github-preview-logo</title><path d="M72.997 40c-19.325 0-34.997 15.607-34.997 34.862 0 15.402 10.028 28.467 23.936 33.077 1.751.321 2.389-.755 2.389-1.68 0-.826-.03-3.02-.047-5.928-9.735 2.106-11.789-4.674-11.789-4.674-1.592-4.028-3.887-5.1-3.887-5.1-3.178-2.161.241-2.119.241-2.119 3.513.246 5.361 3.593 5.361 3.593 3.122 5.327 8.193 3.788 10.187 2.895.318-2.251 1.223-3.788 2.222-4.659-7.772-.88-15.943-3.871-15.943-17.23 0-3.805 1.364-6.919 3.603-9.354-.361-.882-1.562-4.428.344-9.226 0 0 2.937-.937 9.624 3.574 2.791-.775 5.786-1.16 8.762-1.175 2.974.015 5.967.4 8.762 1.175 6.682-4.511 9.615-3.574 9.615-3.574 1.91 4.798.709 8.344.35 9.226 2.243 2.435 3.597 5.549 3.597 9.354 0 13.392-8.184 16.339-15.979 17.202 1.255 1.076 2.374 3.204 2.374 6.457 0 4.659-.043 8.419-.043 9.562 0 .933.632 2.018 2.406 1.678 13.897-4.62 23.916-17.677 23.916-33.075 0-19.254-15.672-34.862-35.003-34.862" sketch:type="MSShapeGroup" fill="#A6A6A6"/></svg>