<svg width="148" height="148" viewBox="0 0 148 148" xmlns="http://www.w3.org/2000/svg" xmlns:sketch="http://www.bohemiancoding.com/sketch/ns"><title>kiln-preview-logo</title><path d="M70.188 39.484c2.076.521 5.685.683 6.771.523 1.087-.16 1.167-.941 1.167-.941s1.125.229 1.68 1.068c.555.839.607 2.129 1.247 4.063.64 1.935 1.359 2.803 1.652 3.797.293.994.093 2.124.093 2.124s3.291-.952 4.811-.485c1.52.467 1.469 1.863 1.469 1.863s-4.446 1.264-5.688 2.281c0 0 .094.52.398.675.304.155 2.63-.168 3.047.697 1.191-.362 1.348-1.151 2.653-1.627s4.346.121 5.596 3.653.658 6.339-2.081 9.137c-2.74 2.797-8.264 2.416-8.264 2.416s2.203-2.05 2.401-3.215c.199-1.165-.221-1.988-1.568-2.823-1.348-.835-5.61-1.506-6.39-2.093 1.117 3.296 10.547 14.89 10.223 15.863-1.048 0-2.568-1.662-2.568-1.662s1.671 3.901 1.801 5.263c.131 1.362-.281 2.941-.281 2.941s-.746.112-.962-1.913c-.724 1.253-1.317 2.932-3.117 4.72-1.8 1.789-3.317 1.604-4.278 2.663-.961 1.059-.794 3.596-.551 6.07.242 2.474 1.404 3.72 3.258 4.33 1.854.609 5.579-.938 6.374-.976.795-.038 1.433.601 1.433.601s2.165-1.406 4.277-1.125c2.112.281 4.102 3.242 4.102 3.242s-.17 1.8-.872 2.121c-.702.32-3.23.171-3.23.171s.542.751-.641.895c-1.182.144-5.399.229-8.816 0-3.418-.229-6.408-.511-7.548-.895-1.141-.383-1.913-.707-2.019-1.705-.107-.998 1.782-2.262 1.371-5.435-.411-3.173-2.338-5.787-2.862-6.209-.524-.422-2.016-1.51-4.006-.109-1.99 1.401-2.669 3.393-3.186 5.095-.284.933-.24 3.262.72 4.511.961 1.249 2.962 1.833 3.06 2.404 1.666-.028 3.481.46 4.769 1.708.808.783 2.377 2.818 1.623 3.404-1.993 1.548-5.31.92-5.31.92s-1.972 1.678-6.304 1.478c-4.332-.2-4.918-1.099-5.977-1.687-6.061.497-6.408-1.142-6.408-1.142s.439-2.239 1.363-3.234c.923-.995 2.851-1.779 4.88-1.354 0 0 4.724-1.969 5.471-4.625.748-2.656-1.295-5.724-1.187-7.23-1.515-.56-3.756-2.573-7.722-8.607-3.966-6.035-3.923-7.377-4.321-8.894-.398-1.516-.552-6.281-.806-8.141-.255-1.86-.823-3.764-.823-3.764s.913.831 1.305 2.508c.324-1.581-.374-4.724-.392-5.852-.017-1.128.228-2.309.228-2.309s1.241 2.309 2.002 3.853c.761 1.544 1.764 1.8 1.764 1.8l-.402-1.584s1.867 1.892 3.225 2.588l-.49-1.337s1.697.738 3.162 1.862c1.444-.412 3.645-.152 5.314.386s6.145 2.968 7.299 2.744c1.154-.224 1.327-1.902.664-4.122-.664-2.22-3.524-5.312-3.869-6.373-2.25-.777-9.033-1.405-9.93-1.78.323-1.28 1.278-2.643 5.063-3.039-.662-1.265.061-2.688.584-3.468.524-.78 4.048-4.678 4.549-6.68z" sketch:type="MSShapeGroup" fill="#A6A6A6"/></svg>