<svg width="148" height="148" viewBox="0 0 148 148" xmlns="http://www.w3.org/2000/svg" xmlns:sketch="http://www.bohemiancoding.com/sketch/ns"><title>onedrive-preview-logo</title><g sketch:type="MSShapeGroup" fill="#A8A8A8"><path d="M57.629 98.316c-5.513-1.371-8.585-5.731-8.595-12.201-.003-2.068.147-3.06.666-4.39 1.272-3.261 4.64-5.722 9.072-6.627 2.205-.451 2.885-.934 2.885-2.054 0-.351.262-1.398.583-2.326 1.457-4.214 4.156-7.727 7.039-9.165 3.018-1.504 4.541-1.843 8.191-1.824 5.184.028 7.77 1.147 11.388 4.926l1.989 2.079 1.782-.614c8.626-2.97 17.225 2.086 17.918 10.535l.19 2.311 1.699.606c4.851 1.729 7.131 5.36 6.718 10.698-.27 3.491-1.911 6.278-4.51 7.661l-1.222.65-27.151.052c-20.864.04-27.496-.034-28.643-.319z"/><path d="M37.333 94.454c-3.219-.761-6.629-3.59-8.229-6.824-.907-1.835-.955-2.105-.955-5.351 0-3.088.077-3.583.8-5.116 1.522-3.232 4.44-5.567 8.1-6.484.772-.194 1.498-.502 1.613-.686.115-.184.242-1.186.283-2.227.255-6.466 4.519-12.163 10.473-13.993 3.217-.989 7.258-.745 10.757.647 1.11.442.985.536 3.331-2.525 1.388-1.81 4.191-4.062 6.486-5.208 2.477-1.238 5.053-1.808 8.133-1.8 8.61.021 16.03 5.379 18.774 13.556.877 2.613.833 3.344-.201 3.366-.451.009-1.744.257-2.873.549l-2.053.532-1.873-1.864c-5.282-5.255-13.901-6.391-21.229-2.797-2.927 1.436-5.28 3.496-7.057 6.182-1.267 1.915-2.882 5.487-2.882 6.374 0 .629-.512.944-2.699 1.657-6.77 2.209-10.722 7.311-10.719 13.839.001 2.376.616 5.283 1.47 6.949.322.628.501 1.225.399 1.326-.262.26-8.684.173-9.849-.103z"/></g></svg>