<svg width="148px" height="148px" viewBox="0 0 148 148" version="1.1" xmlns="http://www.w3.org/2000/svg" xmlns:xlink="http://www.w3.org/1999/xlink">
  <g stroke="none" fill="none" fill-rule="evenodd">
    <g fill="#A6A6A6">
      <path d="M50.0085154,42 C45.5855345,42 42,45.578055 42,50.0085154 L42,97.9914846 C42,102.414466 45.578055,106 50.0085154,106 L97.9914846,106 C102.414466,106 106,102.421945 106,97.9914846 L106,50.0085154 C106,45.5855345 102.421945,42 97.9914846,42 L50.0085154,42 Z M81.99923,50 C79.7905162,50 78,51.7941203 78,53.9968389 L78,74.0031611 C78,76.2105543 79.7924676,78 81.99923,78 L94.00077,78 C96.2094838,78 98,76.2058797 98,74.0031611 L98,53.9968389 C98,51.7894457 96.2075324,50 94.00077,50 L81.99923,50 Z M53.99923,50 C51.7905162,50 50,51.7930912 50,54.00181 L50,89.99819 C50,92.2083286 51.7924676,94 53.99923,94 L66.00077,94 C68.2094838,94 70,92.2069088 70,89.99819 L70,54.00181 C70,51.7916714 68.2075324,50 66.00077,50 L53.99923,50 Z"></path>
    </g>
  </g>
</svg>
