<?xml version="1.0" encoding="UTF-8"?>
<svg width="371px" height="158px" viewBox="0 0 371 158" version="1.1" xmlns="http://www.w3.org/2000/svg" xmlns:xlink="http://www.w3.org/1999/xlink">
    <!-- Generator: sketchtool 41.2 (35397) - http://www.bohemiancoding.com/sketch -->
    <title>09B4F08E-8E58-478A-8C47-D3DB181EAF3E</title>
    <desc>Created with sketchtool.</desc>
    <defs>
        <rect id="path-1" x="0.186234818" y="0.853403141" width="243" height="144" rx="4.1472"></rect>
        <filter x="-50%" y="-50%" width="200%" height="200%" filterUnits="objectBoundingBox" id="filter-3">
            <feOffset dx="0" dy="16" in="SourceAlpha" result="shadowOffsetOuter1"></feOffset>
            <feGaussianBlur stdDeviation="16" in="shadowOffsetOuter1" result="shadowBlurOuter1"></feGaussianBlur>
            <feColorMatrix values="0 0 0 0 0   0 0 0 0 0   0 0 0 0 0  0 0 0 0.15 0" type="matrix" in="shadowBlurOuter1"></feColorMatrix>
        </filter>
        <rect id="path-4" x="0.614733726" y="0.000644199388" width="61" height="15" rx="2.80804921"></rect>
        <rect id="path-6" x="0.614733726" y="0.791809707" width="61" height="27" rx="2.80804921"></rect>
        <path d="M0.989115541,3.45506322 C0.989115541,1.90613153 2.24918523,0.650474305 3.78876808,0.650474305 L59.189463,0.650474305 C60.7356684,0.650474305 61.9891155,1.90745088 61.9891155,3.45506322 L61.9891155,39.8458854 C61.9891155,41.3948171 60.7290458,42.6504743 59.189463,42.6504743 L3.78876808,42.6504743 C2.24256268,42.6504743 0.989115541,41.3934977 0.989115541,39.8458854 L0.989115541,3.45506322 Z" id="path-8"></path>
        <path d="M0.34250628,3.53149749 C0.34250628,1.98300759 1.60257597,0.727708498 3.14215881,0.727708498 L58.5428537,0.727708498 C60.0890591,0.727708498 61.3425063,1.98080012 61.3425063,3.53149749 L61.3425063,12.9239195 C61.3425063,14.4724094 60.0824366,15.7277085 58.5428537,15.7277085 L3.14215881,15.7277085 C1.59595342,15.7277085 0.34250628,14.4746169 0.34250628,12.9239195 L0.34250628,3.53149749 Z" id="path-10"></path>
        <path d="M0.34250628,3.67283289 C0.34250628,2.12434299 1.60257597,0.869043899 3.14215881,0.869043899 L58.5428537,0.869043899 C60.0890591,0.869043899 61.3425063,2.12213552 61.3425063,3.67283289 L61.3425063,13.0652549 C61.3425063,14.6137448 60.0824366,15.8690439 58.5428537,15.8690439 L3.14215881,15.8690439 C1.59595342,15.8690439 0.34250628,14.6159523 0.34250628,13.0652549 L0.34250628,3.67283289 Z" id="path-12"></path>
        <path d="M0.32514793,3.30061296 C0.32514793,1.75168127 1.58521762,0.496024044 3.12480046,0.496024044 L58.5254954,0.496024044 C60.0717008,0.496024044 61.3251479,1.75300062 61.3251479,3.30061296 L61.3251479,39.6914351 C61.3251479,41.2403668 60.0650782,42.496024 58.5254954,42.496024 L3.12480046,42.496024 C1.57859506,42.496024 0.32514793,41.2390475 0.32514793,39.6914351 L0.32514793,3.30061296 Z" id="path-14"></path>
        <rect id="path-16" x="0.510121457" y="0.853403141" width="9" height="9" rx="1.5109079"></rect>
        <rect id="path-18" x="0.510121457" y="0.853403141" width="9" height="9" rx="1.5109079"></rect>
        <rect id="path-20" x="0.510121457" y="0.853403141" width="9" height="9" rx="1.5109079"></rect>
        <rect id="path-22" x="-11.4898785" y="0.853403141" width="9" height="9" rx="1.5109079"></rect>
        <rect id="path-24" x="0.510121457" y="0.853403141" width="9" height="9" rx="1.5109079"></rect>
        <rect id="path-26" x="0" y="0" width="200" height="150"></rect>
    </defs>
    <g id="Full-Bleed" stroke="none" stroke-width="1" fill="none" fill-rule="evenodd">
        <g id="1a.0-free-setup-large" transform="translate(-862.000000, -82.000000)">
            <g id="banner8" transform="translate(0.000000, 72.000000)">
                <g id="bg">
                    <g id="illustration-welcome" transform="translate(862.000000, 18.000000)">
                        <g id="illustration">
                            <g id="stars" transform="translate(0.000000, 34.000000)" fill="#FFFFFF">
                                <path d="M4.14213562,12.1421356 C4.14213562,12.1421356 9.14213562,16.1421356 14.1421356,16.1421356 C19.1421356,16.1421356 24.1421356,12.1421356 24.1421356,12.1421356 C24.1421356,12.1421356 20.1421356,17.6421356 20.1421356,22.1421356 C20.1421356,26.6421356 24.1421356,32.1421356 24.1421356,32.1421356 C24.1421356,32.1421356 19.1421356,28.1421356 14.1421356,28.1421356 C9.14213562,28.1421356 4.14213562,32.1421356 4.14213562,32.1421356 C4.14213562,32.1421356 8.14213562,27.1421356 8.14213562,22.1421356 C8.14213562,17.1421356 4.14213562,12.1421356 4.14213562,12.1421356 Z" id="Rectangle-27" opacity="0.800000012" transform="translate(14.142136, 22.142136) rotate(45.000000) translate(-14.142136, -22.142136) "></path>
                                <path d="M16,52 C16,52 18.5,54 21,54 C23.5,54 26,52 26,52 C26,52 24,54.75 24,57 C24,59.25 26,62 26,62 C26,62 23.5,60 21,60 C18.5,60 16,62 16,62 C16,62 18,59.5 18,57 C18,54.5 16,52 16,52 Z" id="Rectangle-27" opacity="0.600000024" transform="translate(21.000000, 57.000000) rotate(45.000000) translate(-21.000000, -57.000000) "></path>
                                <path d="M341.142136,4.14213562 C341.142136,4.14213562 346.142136,8.14213562 351.142136,8.14213562 C356.142136,8.14213562 361.142136,4.14213562 361.142136,4.14213562 C361.142136,4.14213562 357.142136,9.64213562 357.142136,14.1421356 C357.142136,18.6421356 361.142136,24.1421356 361.142136,24.1421356 C361.142136,24.1421356 356.142136,20.1421356 351.142136,20.1421356 C346.142136,20.1421356 341.142136,24.1421356 341.142136,24.1421356 C341.142136,24.1421356 345.142136,19.1421356 345.142136,14.1421356 C345.142136,9.14213562 341.142136,4.14213562 341.142136,4.14213562 Z" id="Rectangle-27" opacity="0.800000012" transform="translate(351.142136, 14.142136) rotate(45.000000) translate(-351.142136, -14.142136) "></path>
                                <path d="M359,38 C359,38 361.5,40 364,40 C366.5,40 369,38 369,38 C369,38 367,40.75 367,43 C367,45.25 369,48 369,48 C369,48 366.5,46 364,46 C361.5,46 359,48 359,48 C359,48 361,45.5 361,43 C361,40.5 359,38 359,38 Z" id="Rectangle-27" opacity="0.400000006" transform="translate(364.000000, 43.000000) rotate(45.000000) translate(-364.000000, -43.000000) "></path>
                                <path d="M335,51 C335,51 337.5,53 340,53 C342.5,53 345,51 345,51 C345,51 343,53.75 343,56 C343,58.25 345,61 345,61 C345,61 342.5,59 340,59 C337.5,59 335,61 335,61 C335,61 337,58.5 337,56 C337,53.5 335,51 335,51 Z" id="Rectangle-27" opacity="0.600000024" transform="translate(340.000000, 56.000000) rotate(45.000000) translate(-340.000000, -56.000000) "></path>
                            </g>
                            <g id="Board-Illustration" transform="translate(77.000000, 7.000000)">
                                <g id="Board" transform="translate(0.489879, 0.146597)">
                                    <g id="Bitmap-Copy" transform="translate(0.323887, 0.000000)">
                                        <g id="Board-Copy">
                                            <g id="bg">
                                                <mask id="mask-2" fill="white">
                                                    <use xlink:href="#path-1"></use>
                                                </mask>
                                                <g id="Mask">
                                                    <use fill="black" fill-opacity="1" filter="url(#filter-3)" xlink:href="#path-1"></use>
                                                    <use fill="#4BBF6B" fill-rule="evenodd" xlink:href="#path-1"></use>
                                                </g>
                                                <polygon id="Rectangle-753" fill="#FFFFFF" opacity="0.0799999982" mask="url(#mask-2)" points="205.502024 0.719895288 243.696356 0.719895288 243.696356 88.5078534"></polygon>
                                            </g>
                                            <g id="Middle-List" transform="translate(86.330812, 23.095114)">
                                                <rect id="List" fill="#E3E3E3" x="0.855422596" y="0.758289433" width="69" height="66" rx="2.80804921"></rect>
                                                <g id="Card-+-Title" transform="translate(4.240689, 16.757645)">
                                                    <mask id="mask-5" fill="white">
                                                        <use xlink:href="#path-4"></use>
                                                    </mask>
                                                    <use id="Mask" fill="#FFFFFF" xlink:href="#path-4"></use>
                                                    <path d="M4.61473373,6.40672887 C4.61473373,5.63016975 5.24301025,5.0006442 6.01477155,5.0006442 L15.2146959,5.0006442 C15.9879154,5.0006442 16.6147337,5.63389765 16.6147337,6.40672887 L16.6147337,8.59455953 C16.6147337,9.37111865 15.9864572,10.0006442 15.2146959,10.0006442 L6.01477155,10.0006442 C5.24155201,10.0006442 4.61473373,9.36739074 4.61473373,8.59455953 L4.61473373,6.40672887 Z" id="Title" fill="#E4E4E4" mask="url(#mask-5)"></path>
                                                </g>
                                                <g id="Card-+-Title-4" transform="translate(4.240689, 34.966480)">
                                                    <mask id="mask-7" fill="white">
                                                        <use xlink:href="#path-6"></use>
                                                    </mask>
                                                    <use id="Mask" fill="#FFFFFF" xlink:href="#path-6"></use>
                                                    <rect id="Title" fill="#E4E4E4" mask="url(#mask-7)" x="4.61473373" y="5.79180971" width="46" height="5" rx="1.40402461"></rect>
                                                    <rect id="Title-3" fill="#E4E4E4" mask="url(#mask-7)" x="4.61473373" y="13.7918097" width="17" height="5" rx="1.40402461"></rect>
                                                </g>
                                                <path d="M5.8554226,8.1643741 C5.8554226,7.38781498 6.4928504,6.75828943 7.26313573,6.75828943 L32.4477095,6.75828943 C33.225168,6.75828943 33.8554226,7.39154289 33.8554226,8.1643741 L33.8554226,10.3522048 C33.8554226,11.1287639 33.2179948,11.7582894 32.4477095,11.7582894 L7.26313573,11.7582894 C6.48567724,11.7582894 5.8554226,11.125036 5.8554226,10.3522048 L5.8554226,8.1643741 Z" id="Title-2" fill="#FFFFFF"></path>
                                            </g>
                                            <g id="Right-List" transform="translate(162.956430, 23.095114)">
                                                <path d="M0.229804411,3.56606852 C0.229804411,2.01537495 1.48632997,0.758289433 3.04169748,0.758289433 L66.4179113,0.758289433 C67.970877,0.758289433 69.2298044,2.011147 69.2298044,3.56606852 L69.2298044,99.9505103 C69.2298044,101.501204 67.9732789,102.758289 66.4179113,102.758289 L3.04169748,102.758289 C1.48873182,102.758289 0.229804411,101.505432 0.229804411,99.9505103 L0.229804411,3.56606852 Z" id="List" fill="#E3E3E3"></path>
                                                <g id="Card-+-Title" transform="translate(3.240689, 16.107815)">
                                                    <mask id="mask-9" fill="white">
                                                        <use xlink:href="#path-8"></use>
                                                    </mask>
                                                    <use id="Card" fill="#FFFFFF" xlink:href="#path-8"></use>
                                                    <rect id="Rectangle-517" fill="#FAFAFA" mask="url(#mask-9)" x="0.989115541" y="-0.349525695" width="66" height="32"></rect>
                                                    <path d="M4.98911554,36.056559 C4.98911554,35.2799999 5.6270457,34.6504743 6.395589,34.6504743 L17.5826421,34.6504743 C18.3594159,34.6504743 18.9891155,35.2837278 18.9891155,36.056559 L18.9891155,38.2443896 C18.9891155,39.0209488 18.3511854,39.6504743 17.5826421,39.6504743 L6.395589,39.6504743 C5.61881516,39.6504743 4.98911554,39.0172209 4.98911554,38.2443896 L4.98911554,36.056559 Z" id="Title" fill="#E4E4E4" mask="url(#mask-9)"></path>
                                                </g>
                                                <g id="Card-+-Title" transform="translate(3.887298, 63.030581)">
                                                    <g id="Bitmap">
                                                        <mask id="mask-11" fill="white">
                                                            <use xlink:href="#path-10"></use>
                                                        </mask>
                                                        <use id="Mask" fill="#FFFFFF" xlink:href="#path-10"></use>
                                                    </g>
                                                    <rect id="Title" fill="#E4E4E4" x="4.34250628" y="5.7277085" width="23" height="5" rx="1.40402461"></rect>
                                                </g>
                                                <g id="Card-+-Title-5" transform="translate(3.887298, 82.889246)">
                                                    <g id="Bitmap">
                                                        <mask id="mask-13" fill="white">
                                                            <use xlink:href="#path-12"></use>
                                                        </mask>
                                                        <use id="Mask" fill="#FFFFFF" xlink:href="#path-12"></use>
                                                    </g>
                                                    <path d="M4.34250628,7.27512857 C4.34250628,6.49856945 4.96972524,5.8690439 5.74837663,5.8690439 L18.9366359,5.8690439 C19.7130767,5.8690439 20.3425063,6.50229735 20.3425063,7.27512857 L20.3425063,9.46295923 C20.3425063,10.2395183 19.7152873,10.8690439 18.9366359,10.8690439 L5.74837663,10.8690439 C4.97193588,10.8690439 4.34250628,10.2357904 4.34250628,9.46295923 L4.34250628,7.27512857 Z" id="Title" fill="#E4E4E4"></path>
                                                </g>
                                                <rect id="Title-2" fill="#FFFFFF" x="4.22980441" y="6.75828943" width="18" height="5" rx="1.40402461"></rect>
                                            </g>
                                            <g id="Left-List" transform="translate(10.705194, 9.095114)">
                                                <path d="M0.481040781,17.5660685 C0.481040781,16.0153749 1.73756634,14.7582894 3.29293385,14.7582894 L66.6691477,14.7582894 C68.2221134,14.7582894 69.4810408,16.011147 69.4810408,17.5660685 L69.4810408,113.95051 C69.4810408,115.501204 68.2245152,116.758289 66.6691477,116.758289 L3.29293385,116.758289 C1.73996819,116.758289 0.481040781,115.505432 0.481040781,113.95051 L0.481040781,17.5660685 Z" id="List" fill="#E3E3E3"></path>
                                                <g id="Card-+-Title" transform="translate(4.240689, 30.757645)">
                                                    <rect id="Card" fill="#FFFFFF" x="0.240351911" y="0.000644199387" width="61" height="15" rx="2.80804921"></rect>
                                                    <rect id="Title" fill="#E4E4E4" x="4.24035191" y="5.0006442" width="31" height="5" rx="1.40402461"></rect>
                                                </g>
                                                <g id="Card-+-Title-3" transform="translate(4.240689, 50.016989)">
                                                    <rect id="Card" fill="#FFFFFF" x="0.240351911" y="0.741300025" width="61" height="15" rx="2.80804921"></rect>
                                                    <rect id="Title" fill="#E4E4E4" x="4.24035191" y="5.74130002" width="23" height="5" rx="1.40402461"></rect>
                                                </g>
                                                <g id="Card-+-Title" transform="translate(3.828328, 68.284052)">
                                                    <g id="Bitmap" transform="translate(0.058970, 0.000000)"></g>
                                                    <rect id="Title" fill="#E4E4E4" x="3.23948685" y="34.6085917" width="15.9025833" height="4.55220862" rx="1.40402461"></rect>
                                                </g>
                                                <g id="Card-+-Title-Copy" transform="translate(4.155893, 70.262265)">
                                                    <mask id="mask-15" fill="white">
                                                        <use xlink:href="#path-14"></use>
                                                    </mask>
                                                    <use id="Card" fill="#FFFFFF" xlink:href="#path-14"></use>
                                                    <rect id="Rectangle-517" fill="#FAFAFA" mask="url(#mask-15)" x="0.32514793" y="0.496024044" width="61" height="29"></rect>
                                                    <path d="M4.32514793,34.9021087 C4.32514793,34.1255496 4.96307808,33.496024 5.73162139,33.496024 L16.9186745,33.496024 C17.6954483,33.496024 18.3251479,34.1292775 18.3251479,34.9021087 L18.3251479,37.0899394 C18.3251479,37.8664985 17.6872178,38.496024 16.9186745,38.496024 L5.73162139,38.496024 C4.95484755,38.496024 4.32514793,37.8627706 4.32514793,37.0899394 L4.32514793,34.9021087 Z" id="Title" fill="#E4E4E4" mask="url(#mask-15)"></path>
                                                </g>
                                                <rect id="Title-2" fill="#FFFFFF" x="4.48104078" y="20.7582894" width="17" height="5" rx="1.40402461"></rect>
                                                <rect id="Title-2-Copy" fill="#FFFFFF" opacity="0.329999983" x="0.481040781" y="0.758289433" width="17" height="5" rx="1.40402461"></rect>
                                            </g>
                                        </g>
                                    </g>
                                    <g id="Green-Avatar" transform="translate(64.000000, 62.000000)">
                                        <g id="Oval-2">
                                            <mask id="mask-17" fill="white">
                                                <use xlink:href="#path-16"></use>
                                            </mask>
                                            <use id="Mask" fill="#F2D600" xlink:href="#path-16"></use>
                                        </g>
                                    </g>
                                    <g id="Green-Avatar" transform="translate(140.000000, 73.000000)">
                                        <g id="Oval-2">
                                            <mask id="mask-19" fill="white">
                                                <use xlink:href="#path-18"></use>
                                            </mask>
                                            <use id="Mask" fill="#298FCA" xlink:href="#path-18"></use>
                                        </g>
                                    </g>
                                    <g id="Green-Avatar" transform="translate(216.000000, 89.000000)">
                                        <g id="Oval-2">
                                            <mask id="mask-21" fill="white">
                                                <use xlink:href="#path-20"></use>
                                            </mask>
                                            <use id="Mask" fill="#C377E0" xlink:href="#path-20"></use>
                                            <mask id="mask-23" fill="white">
                                                <use xlink:href="#path-22"></use>
                                            </mask>
                                            <use id="Mask" fill="#EB5A46" xlink:href="#path-22"></use>
                                        </g>
                                    </g>
                                    <g id="Green-Avatar" transform="translate(216.000000, 109.000000)">
                                        <g id="Oval-2">
                                            <mask id="mask-25" fill="white">
                                                <use xlink:href="#path-24"></use>
                                            </mask>
                                            <use id="Mask" fill="#FFAB4A" xlink:href="#path-24"></use>
                                        </g>
                                    </g>
                                    <path d="M116.260218,5.85340314 C115.293666,5.85340314 114.510121,6.63736381 114.510121,7.60349984 L114.510121,18.1033065 C114.510121,19.0698581 115.294082,19.8534031 116.260218,19.8534031 L126.760025,19.8534031 C127.726576,19.8534031 128.510121,19.0694425 128.510121,18.1033065 L128.510121,7.60349984 C128.510121,6.63694812 127.726161,5.85340314 126.760025,5.85340314 L116.260218,5.85340314 L116.260218,5.85340314 Z M123.296812,7.85340314 C122.862335,7.85340314 122.510121,8.21969803 122.510121,8.67196322 L122.510121,13.0348431 C122.510121,13.4869213 122.862464,13.8534031 123.296812,13.8534031 L125.723431,13.8534031 C126.157908,13.8534031 126.510121,13.4871083 126.510121,13.0348431 L126.510121,8.67196322 C126.510121,8.21988497 126.157779,7.85340314 125.723431,7.85340314 L123.296812,7.85340314 L123.296812,7.85340314 Z M117.296812,7.85340314 C116.862335,7.85340314 116.510121,8.20345158 116.510121,8.63635001 L116.510121,16.0704563 C116.510121,16.5028659 116.862464,16.8534031 117.296812,16.8534031 L119.723431,16.8534031 C120.157908,16.8534031 120.510121,16.5033547 120.510121,16.0704563 L120.510121,8.63635001 C120.510121,8.2039404 120.157779,7.85340314 119.723431,7.85340314 L117.296812,7.85340314 L117.296812,7.85340314 Z" fill="#FFFFFF" opacity="0.659999967"></path>
                                </g>
                            </g>
                            <g id="taco_wave" transform="translate(28.000000, 0.000000)">
                                <mask id="mask-27" fill="white">
                                    <use xlink:href="#path-26"></use>
                                </mask>
                                <g id="Mask"></g>
                                <g mask="url(#mask-27)">
                                    <g transform="translate(12.244898, 11.162162)">
                                        <path d="M103.098311,98.1566097 C103.176209,98.2098534 102.795545,97.5116876 102.795545,88.93072 C102.795545,76.6012033 100.193923,71.3313373 99.2208354,66.7171424 C98.5157915,63.372579 97.3860644,60.1620702 95.8792778,57.1392576 C96.7569885,53.1831027 98.8764827,41.6547624 96.7059341,30.516757 C93.5860041,14.4931848 87.3095904,1.0935469 84.694355,0.84207715 C82.077607,0.591607283 68.2827066,11.4438017 59.744495,32.3770332 L60.5552223,32.9703218 C58.2918973,32.6712981 55.9666635,32.516257 53.5893389,32.516257 C51.2357099,32.516257 48.9234191,32.668464 46.6649412,32.9620803 L47.4644346,32.3770332 C38.9277354,11.4438017 25.1313225,0.591607283 22.5153308,0.84207715 C19.8983307,1.0935469 13.6231775,14.4931848 10.501735,30.516757 C8.42041813,41.2069487 10.2880523,52.2567186 11.2171499,56.6258709 C10.9885736,57.0860721 10.7697744,57.550743 10.5609772,58.0196888 L10.5161042,57.9644454 C10.5161042,57.9644454 2.75510204,74.2667343 2.75510204,98.1431115 C2.75537957,98.1430245 2.75535414,98.1431115 2.75535414,98.1431115 L8.22960098,97.5116876 L6.40518816,102.006147 C6.40518816,102.006147 14.2556842,99.8389075 19.6366558,102.006147 C21.1316437,102.608467 22.8942801,103.724299 25.4778935,104.923229 C25.371663,105.721961 25.3037555,106.647203 25.3037555,107.70747 C25.5721172,107.893212 25.8771805,108.081115 26.2169262,108.27001 L25.8843403,108.27001 C25.8843403,108.27001 22.2820579,115.122969 20.2810638,122.327561 C18.2800697,129.532154 17.721075,157.932172 17.721075,157.932172 L96.5955951,157.932172 C96.5955951,157.932172 95.3662868,150.224492 93.3879472,141.803142 C97.9919093,139.722556 101.085391,135.85705 101.085391,131.432172 C101.085391,124.851209 94.242747,119.50755 85.7651579,119.432963 C83.4439049,114.451531 81.2402775,110.49133 80.3639767,108.95774 C80.4477279,108.919476 80.5304561,108.881335 80.6121774,108.843334 C80.9771154,108.157729 81.0371232,106.899998 80.9832931,105.667857 C87.1010211,103.879405 90.993946,102.143567 92.6376218,102.004647 C96.0588054,101.713682 98.8144581,102.006147 98.8144581,102.006147 L96.9716424,98.1411119 L103.098311,98.1566097 Z" id="shadow" fill="#8C8C8C" opacity="0.100000001"></path>
                                        <path d="M23.1662962,108.432432 L77.2479289,108.432432 C77.2479289,108.432432 83.5773552,119.118679 87.388654,130.212456 C91.1999528,141.306233 93.877551,158.094595 93.877551,158.094595 L15.0030309,158.094595 C15.0030309,158.094595 15.5620257,129.694576 17.5630198,122.489984 C19.5640138,115.285391 23.1662962,108.432432 23.1662962,108.432432 Z" id="Rectangle-34" fill="#81929C"></path>
                                        <path d="M23.1662962,107.418919 L46.635684,107.418919 C46.635684,107.418919 42.0591321,115.068633 40.513235,122.489984 C38.9673379,129.911334 40.513235,158.094595 40.513235,158.094595 L6.12244898,158.094595 C6.12244898,158.094595 7.8677653,142.158348 12.2008059,129.375674 C16.5338465,116.592999 23.1662962,107.418919 23.1662962,107.418919 Z" id="Rectangle-34" fill="#576D7A"></path>
                                        <path d="M49.3293595,189.947473 C61.7967776,189.947473 71.9036169,176.474173 71.9036169,159.854015 C71.9036169,151.379059 69.2756495,143.722345 65.0467823,138.253044 C59.4440524,132.802965 60.5279401,128.297762 60.5279401,128.297762 C57.8487167,129.287408 56.3474404,130.674528 56.3474404,130.674528 C55.6317071,129.760557 56.3309065,127.837838 56.3309065,127.837838 C54.8957657,128.297762 53.3239449,129.760557 49.3293595,129.760557 C36.8619414,129.760557 26.755102,143.233857 26.755102,159.854015 C26.755102,176.474173 36.8619414,189.947473 49.3293595,189.947473 Z" id="Oval-4" fill="#FFFFFF"></path>
                                        <g id="taco" stroke-width="1" fill="none" transform="translate(0.000000, 1.000000)">
                                            <g id="Head" transform="translate(0.000000, 29.506457)">
                                                <path d="M51.4796005,83.2404784 C65.4441609,83.2404784 73.2765061,80.6465407 77.8941334,78.499299 C78.7676431,76.8582465 77.8941334,71.9393383 77.8941334,71.9393383 L24.0168557,70.4742643 C24.0168557,70.4742643 22.5857114,72.4960213 22.5857114,77.3634358 C26.499237,80.0721097 38.2178814,83.2404784 51.4796005,83.2404784" id="Shape" fill="#0079BF"></path>
                                                <path d="M51.8216938,61.1053915 C85.9268942,61.1053915 100.380267,65.8125751 100.380267,65.8125751 C100.458165,65.8658188 100.077501,65.167653 100.077501,56.5866853 C100.077501,44.2571686 97.4758789,38.9873027 96.5027914,34.3731077 C92.425404,15.0309348 74.1444698,0.172222379 50.8712949,0.172222379 C31.2391306,0.172222379 14.4831202,10.7621983 7.84293314,25.6756541 L7.7980602,25.6204107 C7.7980602,25.6204107 0.0370579915,41.9226996 0.0370579915,65.7990769 C7.09597515,60.1825026 17.7172493,61.1053915 51.8216938,61.1053915" id="Shape" fill="#81929C"></path>
                                                <path d="M45.6625042,13.2688968 C41.6698206,11.0069189 38.0522549,10.8344396 38.0522549,10.8344396 L45.2059598,7.61382709 C45.2059598,7.61382709 41.4066332,6.18374913 37.6015087,8.74419108 C43.6094411,1.30508608 50.6156702,0.183970965 50.8032293,0.172722319 C31.1990474,0.198969161 14.474549,10.7801961 7.84318526,25.6746542 L7.79831232,25.6194109 C7.79831232,25.6194109 0.0373100867,41.9224495 0.0373100867,65.7990769 C3.11488805,63.3488717 6.87161041,62.1440165 12.9561797,61.5630867 L50.6280231,27.3627011 C50.6280231,27.3622012 44.6463086,17.0364435 45.6625042,13.2688968" id="Shape" fill="#576D7A"></path>
                                                <path d="M5.51155693,65.167653 L3.68714411,69.6621123 C3.68714411,69.6621123 11.5376401,67.4948729 16.9186117,69.6621123 C21.2833877,71.4206505 27.929625,77.5564124 50.6280231,77.3576865 C73.326925,77.1604601 86.4976378,69.9498276 89.9195778,69.6606125 C93.3407614,69.3696474 96.096414,69.6621123 96.096414,69.6621123 L94.2535983,65.7970772 L100.380267,65.8125751 C100.380267,65.8125751 99.6070915,61.6210796 97.0929462,53.6087937 C94.7066134,46.0039585 87.3265269,44.4813914 83.4530842,45.3965313 C91.2879505,27.3622012 76.2013144,17.0356936 66.4994314,17.0356936 C59.622779,17.0356936 53.4045992,20.4842787 50.6280231,27.3624512 C47.0225575,19.7546165 41.5886462,17.1406809 34.712498,17.1406809 C25.0113712,17.1406809 9.84633357,27.3624512 17.7573324,45.449775 C13.3156674,45.0965675 8.07839005,46.7533683 4.37133042,53.6087937 C1.25417352,61.6363278 0.0373100867,65.7990769 0.0373100867,65.7990769 L5.51155693,65.167653 L5.51155693,65.167653 Z" id="Shape" fill="#FFFFFF"></path>
                                                <path d="M75.1389852,62.1192694 C65.5646625,64.6222185 67.822931,70.3822756 51.0550724,70.4340194 C34.2879697,70.4830133 34.789387,59.7120592 17.1462537,59.715309 C11.6576374,59.7170585 4.99501389,60.554958 0.0776453155,65.4203724 C0.0514274167,65.6620936 0.0375621819,65.7988268 0.0375621819,65.7988268 L5.51180901,65.167653 L3.6873962,69.6621123 C3.6873962,69.6621123 11.5378922,67.4948729 16.9188639,69.6621123 C21.2836398,71.4206505 27.9298771,77.5564124 50.6282749,77.3576865 C73.3271772,77.1604601 86.4978901,69.9498276 89.91983,69.6606125 C93.3410136,69.3696474 96.0966659,69.6621123 96.0966659,69.6621123 L94.2538502,65.7970772 L100.326823,65.7840788 C95.9471736,60.2049999 86.6022572,59.12238 75.1389852,62.1192694 Z" id="Shape" fill="#E1E4E6"></path>
                                            </g>
                                            <g id="Nose" transform="translate(41.546382, 81.674094)" fill="#333333">
                                                <path d="M17.9295134,4.69601508 C17.9295134,7.17846641 17.1061706,10.8260276 8.96475672,10.8260276 C1.030313,10.8260276 0,7.17821647 0,4.69601508 C0,2.2105641 1.44173234,0.198306197 8.96475672,0.198306197 C16.8994525,0.198306197 17.9295134,2.2105641 17.9295134,4.69601508" id="Shape"></path>
                                            </g>
                                            <g id="Left-Eye" transform="translate(28.426472, 56.677101)">
                                                <path d="M10.6953146,7.65693604 C10.6953146,3.61079782 8.33822467,0.329342606 5.43604896,0.329342606 C2.53023183,0.329342606 0.174262316,3.61079782 0.174262316,7.65693604 C0.174262316,11.7030743 2.53023183,12.5351241 5.43604896,12.5351241 C8.33822467,12.5348492 10.6953146,11.7030743 10.6953146,7.65693604" id="Shape" fill="#0079BF"></path>
                                                <path d="M8.85978158,6.67227949 C8.85978158,4.81762762 7.32872354,3.31548335 5.43997043,3.31548335 C3.55121731,3.31548335 2.0179184,4.81762762 2.0179184,6.67227949 C2.0179184,8.52775628 3.55121731,10.0312754 5.43997043,10.0312754 C7.32872354,10.0312754 8.85978158,8.52775628 8.85978158,6.67227949" id="Shape" fill="#000000"></path>
                                                <path d="M6.68307977,4.14533351 C6.68307977,5.40908146 5.76209203,6.43113352 4.62934436,6.43113352 C3.49547627,6.43113352 2.57672938,5.40908146 2.57672938,4.14533351 C2.57672938,2.88268542 3.49547627,1.85953351 4.62934436,1.85953351 C5.76209203,1.85953351 6.68307977,2.88241045 6.68307977,4.14533351" id="Shape" fill="#FFFFFF"></path>
                                            </g>
                                            <g id="Right-Eye" transform="translate(61.772910, 56.677101)">
                                                <path d="M10.6953146,7.65693604 C10.6953146,3.61079782 8.33822467,0.329342606 5.43604896,0.329342606 C2.53023183,0.329342606 0.174262316,3.61079782 0.174262316,7.65693604 C0.174262316,11.7030743 2.53023183,12.5351241 5.43604896,12.5351241 C8.33822467,12.5348492 10.6953146,11.7030743 10.6953146,7.65693604" id="Shape" fill="#0079BF"></path>
                                                <path d="M8.85978158,6.67227949 C8.85978158,4.81762762 7.32872354,3.31548335 5.43997043,3.31548335 C3.55121731,3.31548335 2.0179184,4.81762762 2.0179184,6.67227949 C2.0179184,8.52775628 3.55121731,10.0312754 5.43997043,10.0312754 C7.32872354,10.0312754 8.85978158,8.52775628 8.85978158,6.67227949" id="Shape" fill="#000000"></path>
                                                <path d="M6.68307977,4.14533351 C6.68307977,5.40908146 5.76209203,6.43113352 4.62934436,6.43113352 C3.49547627,6.43113352 2.57672938,5.40908146 2.57672938,4.14533351 C2.57672938,2.88268542 3.49547627,1.85953351 4.62934436,1.85953351 C5.76209203,1.85953351 6.68307977,2.88241045 6.68307977,4.14533351" id="Shape" fill="#FFFFFF"></path>
                                            </g>
                                            <g id="Mouth" transform="translate(32.415859, 86.021397)">
                                                <path d="M2.49402933,4.54045773 C2.49402933,4.54045773 4.60230132,24.4173164 17.3850395,25.8231472 C33.8544177,27.6331795 35.3362331,4.28848802 35.3362331,4.28848802 C35.3362331,4.28848802 29.2549411,14.678988 18.6392131,13.9193294 C8.02424128,13.1586709 2.49402933,4.54045773 2.49402933,4.54045773" id="Shape" fill="#333333"></path>
                                                <path d="M7.54349579,10.2695185 L7.10989206,23.1084738 C7.35114718,28.5355709 12.3484299,33.9644178 18.49325,33.9644178 C24.6388263,33.9644178 29.6353527,28.5355709 29.8763557,23.1084738 L30.3558408,10.0023006 C27.6185913,11.2908956 23.0261734,12.1090471 18.607197,12.1090471 C14.4960288,12.1090471 11.1935819,11.4043819 7.54349579,10.2695185" id="Shape" fill="#FFD2D5"></path>
                                                <path d="M15.4509653,30.6473168 C8.92296063,28.6133115 10.1438576,16.0313253 10.8683791,11.1866581 C9.77151299,10.9249396 8.67363848,10.6209762 7.54349579,10.2712682 L7.10989206,23.106974 C7.35114718,28.5358209 12.3484299,33.9646677 18.49325,33.9646677 C22.177621,33.9646677 25.4392285,32.009153 27.5207784,29.274482 C25.0177253,30.9940251 21.0522681,32.3936067 15.4509653,30.6473168" id="Shape" fill="#E8AFB4"></path>
                                                <path d="M18.607197,12.1090471 C14.4957767,12.1090471 11.1935819,11.4043819 7.54324371,10.2697684 L7.36803753,15.4498952 C9.18967733,16.7992329 12.6017856,19.5708994 18.1254431,20.846246 C17.0409296,16.1603098 15.5283585,13.1541714 15.5283585,13.1541714 L21.4530994,13.1541714 C21.4530994,13.1541714 22.2182083,16.2717963 21.4498222,20.3898009 C25.6777105,19.4676618 28.4134474,17.4514044 30.1566856,15.4581442 L30.3558408,10.0023006 C27.6185913,11.2908956 23.0261734,12.1090471 18.607197,12.1090471" id="Shape" fill="#E8AFB4"></path>
                                                <path d="M18.1254431,20.845996 C18.5313163,22.5962854 18.8779472,24.5737975 19.0637413,26.7255387 C20.3756446,24.5363021 21.0850405,22.3495651 21.4515869,20.389301 C20.4558109,20.6057749 19.3801208,20.7635059 18.2121638,20.8424964 C18.1819124,20.845996 18.1567029,20.8444962 18.1254431,20.845996" id="Shape" fill="#E8AFB4"></path>
                                                <path d="M21.4533516,13.1539215 L15.5286106,13.1539215 C15.5286106,13.1539215 17.0411817,16.1600598 18.1256952,20.845996 C18.156955,20.8444962 18.1821645,20.845996 18.2124159,20.8427464 C19.3803729,20.7637559 20.4558109,20.6060249 21.4503264,20.3895509 C22.2184604,16.2712964 21.4533516,13.1539215 21.4533516,13.1539215" id="Shape" fill="#D1868F"></path>
                                                <path d="M36.9456088,1.1651138 C35.8041218,6.36748792 30.3558408,13.1539215 18.6392131,13.9190794 C7.17997454,14.6672394 0.177274619,5.07514339 0.177274619,0.260472631 C0.177274619,0.260472631 5.18590165,12.1200458 18.6074491,12.1087972 C32.0300049,12.0992983 36.9456088,1.1651138 36.9456088,1.1651138" id="Shape" fill="#333333"></path>
                                            </g>
                                            <g id="Left-Ear" transform="translate(6.722702, 0.000000)">
                                                <path d="M38.0236883,31.5394555 C29.4869892,10.606224 15.6905763,-0.245970408 13.0745846,0.00449945869 C10.4575845,0.255969205 4.18243132,13.6556071 1.06098879,29.6791793 C-1.6122285,43.4095274 2.22894576,57.7330543 2.22894576,57.7330543" id="Shape" fill="#576D7A"></path>
                                                <path d="M25.8621126,29.2134854 C27.5889646,23.9261215 17.9788443,4.25298832 13.8601132,3.4635833 C11.0923602,2.93514688 7.05379542,13.9110764 3.83378368,28.8617777 C0.610746801,43.812229 3.85848901,52.4664377 3.85848901,52.4664377 C3.85848901,52.4664377 5.32064106,41.7047328 13.3682755,36.3243799 C21.4174225,30.9435272 24.1365211,34.4990995 25.8621126,29.2134854" id="Shape" fill="#BEC7CC"></path>
                                                <path d="M24.6427283,27.7101662 C24.5802086,30.5033302 17.3188591,30.379845 11.2252144,34.6985755 C12.9472765,29.1267458 16.9097086,28.3280919 16.9097086,28.3280919 C16.9097086,28.3280919 12.1314965,26.2603406 10.2506144,23.6326568 C12.1183876,22.9417399 16.5698843,24.2598313 16.5698843,24.2598313 C16.5698843,24.2598313 13.0261824,21.9696069 12.4082971,15.9240842 C15.9126721,16.358032 17.297431,20.297808 17.297431,20.297808 C17.297431,20.297808 14.585391,13.9693194 17.4149073,10.3687526 C18.5649655,11.9460628 24.7420538,23.1839608 24.6427283,27.7101662" id="Shape" fill="#D5DBDE"></path>
                                            </g>
                                            <g id="Right-Ear" transform="translate(56.852944, 0.000000)">
                                                <path d="M0.173507248,31.5394555 C8.71171891,10.606224 22.5066193,-0.245970408 25.1233673,0.00449945869 C27.7386027,0.255969205 34.0150164,13.6556071 37.1349463,29.6791793 C39.8106846,43.4095274 35.9669893,57.7330543 35.9669893,57.7330543" id="Shape" fill="#81929C"></path>
                                                <path d="M12.3348308,29.2134854 C10.6079789,23.9261215 20.2180992,4.25298832 24.3368303,3.4635833 C27.1060958,2.93514688 31.1423918,13.9110764 34.3656808,28.8617777 C37.5864488,43.812229 33.8569527,49.764263 33.8569527,49.764263 C33.8569527,49.764263 32.8773108,41.7047328 24.8281638,36.3243799 C16.782294,30.9435272 14.0626912,34.4990995 12.3348308,29.2134854" id="Shape" fill="#D5DBDE"></path>
                                                <path d="M13.5559799,27.7101662 C13.6169869,30.5033302 20.8790928,30.379845 26.9709728,34.6985755 C25.2496669,29.1267458 21.287487,28.3280919 21.287487,28.3280919 C21.287487,28.3280919 26.0672116,26.2603406 27.9455728,23.6326568 C26.0785559,22.9417399 21.6278155,24.2598313 21.6278155,24.2598313 C21.6278155,24.2598313 25.1715174,21.9696069 25.787386,15.9240842 C22.2847755,16.358032 20.9010251,20.297808 20.9010251,20.297808 C20.9010251,20.297808 23.613065,13.9693194 20.7810278,10.3687526 C19.6314737,11.9460628 13.4564023,23.1839608 13.5559799,27.7101662" id="Shape" fill="#F0F2F3"></path>
                                            </g>
                                            <g id="right-paw" transform="translate(0.000000, 119.594595)">
                                                <ellipse id="Oval-3" fill="#F0F2F3" cx="15.3061224" cy="12.6689189" rx="15.3061224" ry="9.62837838"></ellipse>
                                                <path d="M20.4333547,12.6689189 L20.3829718,12.6689189 C20.12699,15.2297243 17.9517082,17.2297297 15.3061224,17.2297297 C12.6605367,17.2297297 10.4852549,15.2297243 10.2292731,12.6689189 L10.1788902,12.6689189 C9.92290833,15.2297243 7.74762658,17.2297297 5.10204082,17.2297297 C2.45645505,17.2297297 0.281173302,15.2297243 0.0251914503,12.6689189 L0,12.6689189 C0,12.5626543 0.001174691,12.4570005 0.00351228532,12.3519598 C0.00117759263,12.2889807 0,12.225708 0,12.1621622 C0,11.9005618 0.019957093,11.6435912 0.0584415632,11.3926703 C0.740418267,4.07686971 7.30661522,0 15.3061224,0 C23.3056297,0 29.8718266,4.07686971 30.5538033,11.3926703 C30.5922878,11.6435912 30.6122449,11.9005618 30.6122449,12.1621622 C30.6122449,12.225708 30.6110673,12.2889807 30.6087326,12.3519598 C30.6110702,12.4570005 30.6122449,12.5626543 30.6122449,12.6689189 L30.5870534,12.6689189 C30.3310716,15.2297243 28.1557898,17.2297297 25.5102041,17.2297297 C22.8646183,17.2297297 20.6893366,15.2297243 20.4333547,12.6689189 Z" id="Combined-Shape" fill="#FFFFFF"></path>
                                            </g>
                                            <g id="left-paw" transform="translate(68.367347, 119.594595)">
                                                <ellipse id="Oval-3" fill="#F0F2F3" cx="15.3061224" cy="12.6689189" rx="15.3061224" ry="9.62837838"></ellipse>
                                                <path d="M20.4333547,12.6689189 L20.3829718,12.6689189 C20.12699,15.2297243 17.9517082,17.2297297 15.3061224,17.2297297 C12.6605367,17.2297297 10.4852549,15.2297243 10.2292731,12.6689189 L10.1788902,12.6689189 C9.92290833,15.2297243 7.74762658,17.2297297 5.10204082,17.2297297 C2.45645505,17.2297297 0.281173302,15.2297243 0.0251914503,12.6689189 L0,12.6689189 C0,12.5626543 0.001174691,12.4570005 0.00351228532,12.3519598 C0.00117759263,12.2889807 0,12.225708 0,12.1621622 C0,11.9005618 0.019957093,11.6435912 0.0584415632,11.3926703 C0.740418267,4.07686971 7.30661522,0 15.3061224,0 C23.3056297,0 29.8718266,4.07686971 30.5538033,11.3926703 C30.5922878,11.6435912 30.6122449,11.9005618 30.6122449,12.1621622 C30.6122449,12.225708 30.6110673,12.2889807 30.6087326,12.3519598 C30.6110702,12.4570005 30.6122449,12.5626543 30.6122449,12.6689189 L30.5870534,12.6689189 C30.3310716,15.2297243 28.1557898,17.2297297 25.5102041,17.2297297 C22.8646183,17.2297297 20.6893366,15.2297243 20.4333547,12.6689189 Z" id="Combined-Shape" fill="#FFFFFF"></path>
                                            </g>
                                        </g>
                                    </g>
                                </g>
                            </g>
                        </g>
                    </g>
                </g>
            </g>
        </g>
    </g>
</svg>