<?xml version="1.0" encoding="UTF-8"?>
<svg width="198px" height="140px" viewBox="0 0 198 140" version="1.1" xmlns="http://www.w3.org/2000/svg" xmlns:xlink="http://www.w3.org/1999/xlink">
    <!-- Generator: sketchtool 42 (36781) - http://www.bohemiancoding.com/sketch -->
    <title>F6322010-0123-407E-979E-CFEA2AB23640</title>
    <desc>Created with sketchtool.</desc>
    <defs>
        <polygon id="path-1" points="0 0 64 0 64 70 8 70 0 20"></polygon>
        <path d="M0.5,0 L77.5,0 L77.5,50 L60.8329032,44.2036059 C60.3098835,44.0217129 59.5340752,44.1495344 59.0969797,44.4915343 L39.9030582,59.5095778 C39.4673538,59.8504892 38.8037079,59.7948702 38.4348499,59.4004132 L21.9078639,41.7264394 C21.5326993,41.325238 20.8145072,41.1797784 20.3111414,41.3983315 L0.5,50 L0.5,0 Z" id="path-3"></path>
        <path d="M0,0 L41.5,0 L41.5,50 L24.8329032,44.2036059 C24.3098835,44.0217129 23.5409123,44.1445614 23.0944761,44.4943572 L4.01019287,59.4474487 C4.01019287,59.4474487 3.56359863,59.8406982 3,59.7000122 L9.5296798,28.1862063 C9.64093719,27.6492513 9.57827632,26.786497 9.39616163,26.2771971 L0,0 Z" id="path-5"></path>
    </defs>
    <g id="Full-Bleed" stroke="none" stroke-width="1" fill="none" fill-rule="evenodd">
        <g id="2c.0-bc-upgrade-admin" transform="translate(-940.000000, -100.000000)">
            <g id="banner8" transform="translate(0.000000, 72.000000)">
                <g id="bg">
                    <g id="illustration_mountain" transform="translate(917.000000, 28.000000)">
                        <g id="mountain">
                            <g transform="translate(0.000000, 38.000000)">
                                <g id="base" transform="translate(0.000000, 26.000000)" fill="#026AA7">
                                    <path d="M113.896143,24.3375625 L166,117 L103.165673,117 C97.2765837,122.713378 90.3766754,126 83,126 C75.6233246,126 68.7234163,122.713378 62.8343271,117 L0,117 L52.1038566,24.3375625 C59.263399,9.52708892 70.4406855,0 83,0 C95.5593145,0 106.736601,9.52708892 113.89614,24.3375553 Z" id="Combined-Shape"></path>
                                </g>
                                <g id="base" transform="translate(82.000000, 36.000000)" fill="#01629B">
                                    <path d="M113.896143,24.3375625 L166,117 L103.165673,117 C97.2765837,122.713378 90.3766754,126 83,126 C75.6233246,126 68.7234163,122.713378 62.8343271,117 L0,117 L52.1038566,24.3375625 C59.263399,9.52708892 70.4406855,0 83,0 C95.5593145,0 106.736601,9.52708892 113.89614,24.3375553 Z" id="Combined-Shape"></path>
                                </g>
                                <g id="base" transform="translate(51.000000, 6.000000)" fill="#0079BF">
                                    <path d="M96.0569867,24.3375588 L140,117 L87.007194,117 C82.0404923,122.713378 76.2212925,126 70,126 C63.7787075,126 57.9595077,122.713378 52.992806,117 L0,117 L43.9430133,24.3375588 C49.9811817,9.52708706 59.4078081,0 70,0 C80.5921919,0 90.0188183,9.52708706 96.0569835,24.337551 Z" id="Combined-Shape"></path>
                                </g>
                                <g id="bottom_shade" transform="translate(121.000000, 40.000000)">
                                    <mask id="mask-2" fill="white">
                                        <use xlink:href="#path-1"></use>
                                    </mask>
                                    <g id="Mask"></g>
                                    <path d="M26.0569867,-9.66244117 L70,83 L17.007194,83 C12.0404923,88.7133785 6.2212925,92 0,92 C-6.2212925,92 -12.0404923,88.7133785 -17.007194,83 L-70,83 L-26.0569867,-9.66244117 C-20.0188183,-24.4729129 -10.5921919,-34 0,-34 C10.5921919,-34 20.0188183,-24.4729129 26.0569835,-9.66244903 Z" id="Combined-Shape" fill="#0170B0" mask="url(#mask-2)"></path>
                                </g>
                                <g id="top" transform="translate(82.000000, 0.000000)">
                                    <mask id="mask-4" fill="white">
                                        <use xlink:href="#path-3"></use>
                                    </mask>
                                    <g id="Rectangle-28"></g>
                                    <path d="M65.0569867,30.3375588 L109,123 L56.007194,123 C51.0404923,128.713378 45.2212925,132 39,132 C32.7787075,132 26.9595077,128.713378 21.992806,123 L-31,123 L12.9430133,30.3375588 C18.9811817,15.5270871 28.4078081,6 39,6 C49.5921919,6 59.0188183,15.5270871 65.0569835,30.337551 Z" id="Mask" fill="#F8F9F9" mask="url(#mask-4)"></path>
                                </g>
                                <g id="top_shade" transform="translate(118.000000, 0.000000)">
                                    <mask id="mask-6" fill="white">
                                        <use xlink:href="#path-5"></use>
                                    </mask>
                                    <g id="Rectangle-28"></g>
                                    <path d="M29.0569867,30.3375588 L73,123 L20.007194,123 C15.0404923,128.713378 9.2212925,132 3,132 C-3.2212925,132 -9.04049226,128.713378 -14.007194,123 L-67,123 L-23.0569867,30.3375588 C-17.0188183,15.5270871 -7.59219188,6 3,6 C13.5921919,6 23.0188183,15.5270871 29.0569835,30.337551 Z" id="Mask" fill="#EDEFF0" mask="url(#mask-6)"></path>
                                </g>
                                <g id="shade" transform="translate(77.000000, 64.000000)">
                                    <path d="M17.185455,3.64614745 C17.7757895,1.54250386 19.7077592,0 22,0 C24.7614237,0 27,2.23857625 27,5 C27,5.33403499 26.9672441,5.66041942 26.9047691,5.97611644 L23,46 L0,46 L17.185455,3.64614745 Z" id="Combined-Shape" fill="#026AA7"></path>
                                    <path d="M75.1944802,15.6143927 C75.7952671,13.5269992 77.7193086,12 80,12 C82.7614237,12 85,14.2385763 85,17 C85,17.6222269 84.8863411,18.2179073 84.6786523,18.7674124 L81,39 L65,39 L75.1944802,15.6143927 Z" id="Combined-Shape" fill="#055A8C" transform="translate(75.000000, 25.500000) scale(-1, 1) translate(-75.000000, -25.500000) "></path>
                                </g>
                            </g>
                            <g id="flag" transform="translate(116.000000, 2.000000)">
                                <path d="M3,10.6444444 L7,10.6444444 L7,45.5222222 C7,45.5222222 6.51416016,46 5,46 C3.48583984,46 3,45.5222222 3,45.5222222 L3,10.6444444 Z" id="Rectangle-30" fill="#F2D600"></path>
                                <path d="M5,10.6444444 L7,10.6444444 L7,45.5222222 C7,45.5222222 6.51416016,46 5,46 L5,10.6444444 Z" id="Rectangle-30" fill="#D9B51C"></path>
                                <g transform="translate(0.900024, 0.000000)">
                                    <g id="Rectangle-31"></g>
                                    <path d="M2.09735223,1.70839688 C2.09735223,1.41479275 2.32500502,1.25569921 2.60700175,1.35345808 L11.5877027,4.46676774 C11.8691744,4.56434458 12.0973522,4.88220195 12.0973522,5.16666465 L12.0973522,19.8434462 L2.09735223,23.5767796 L2.09735223,1.70839688 Z" id="Rectangle-33" fill="#61BD4F"></path>
                                    <path d="M10.2040281,20.608441 L8.10040246,21.3420046 L8.10620465,8.32060999 C8.10646487,7.73661529 8.50760427,7.01354526 9.00613255,6.70312335 L9.15139648,6.6126709 L10.2040281,6.07794189 L10.2040281,20.608441 Z" id="Combined-Shape" fill="#53A343"></path>
                                    <path d="M12.0999756,5.17724609 L12.0999756,7.78106689 L10.2605591,6.10681152 C10.2605591,6.10681152 11.6027222,5.24065713 11.6027222,4.46136475 C11.6027222,4.46136475 12.0999756,4.67340088 12.0999756,5.17724609 Z" id="Triangle-2" fill="#52A343"></path>
                                    <path d="M26.1861443,13.6126442 C26.7179909,13.8586522 26.7276955,14.255835 26.1836516,14.5111174 L10.5737621,21.8357656 C10.312097,21.958547 10.0999756,21.8140235 10.0999756,21.5231202 C10.0999756,21.5231202 10.0999756,6.52721089 10.0999756,6.27128641 C10.0999756,6.01536193 10.4359741,6 10.4359741,6 C10.4359741,6 10.293698,6.14622131 10.4359741,6.27128641 C10.5782503,6.39635152 26.1861443,13.6126442 26.1861443,13.6126442 Z" id="Triangle" fill="#61BD4F"></path>
                                </g>
                            </g>
                            <g id="stars" transform="translate(26.000000, 0.000000)" fill="#FFFFFF">
                                <path d="M4.14213562,37.1421356 C4.14213562,37.1421356 9.14213562,41.1421356 14.1421356,41.1421356 C19.1421356,41.1421356 24.1421356,37.1421356 24.1421356,37.1421356 C24.1421356,37.1421356 20.1421356,42.6421356 20.1421356,47.1421356 C20.1421356,51.6421356 24.1421356,57.1421356 24.1421356,57.1421356 C24.1421356,57.1421356 19.1421356,53.1421356 14.1421356,53.1421356 C9.14213562,53.1421356 4.14213562,57.1421356 4.14213562,57.1421356 C4.14213562,57.1421356 8.14213562,52.1421356 8.14213562,47.1421356 C8.14213562,42.1421356 4.14213562,37.1421356 4.14213562,37.1421356 Z" id="Rectangle-27" opacity="0.800000012" transform="translate(14.142136, 47.142136) rotate(45.000000) translate(-14.142136, -47.142136) "></path>
                                <path d="M39.0710678,21.0710678 C39.0710678,21.0710678 41.5710678,23.0710678 44.0710678,23.0710678 C46.5710678,23.0710678 49.0710678,21.0710678 49.0710678,21.0710678 C49.0710678,21.0710678 47.0710678,23.8210678 47.0710678,26.0710678 C47.0710678,28.3210678 49.0710678,31.0710678 49.0710678,31.0710678 C49.0710678,31.0710678 46.5710678,29.0710678 44.0710678,29.0710678 C41.5710678,29.0710678 39.0710678,31.0710678 39.0710678,31.0710678 C39.0710678,31.0710678 41.0710678,28.5710678 41.0710678,26.0710678 C41.0710678,23.5710678 39.0710678,21.0710678 39.0710678,21.0710678 Z" id="Rectangle-27" opacity="0.600000024" transform="translate(44.071068, 26.071068) rotate(45.000000) translate(-44.071068, -26.071068) "></path>
                                <path d="M157.142136,4.14213562 C157.142136,4.14213562 162.142136,8.14213562 167.142136,8.14213562 C172.142136,8.14213562 177.142136,4.14213562 177.142136,4.14213562 C177.142136,4.14213562 173.142136,9.64213562 173.142136,14.1421356 C173.142136,18.6421356 177.142136,24.1421356 177.142136,24.1421356 C177.142136,24.1421356 172.142136,20.1421356 167.142136,20.1421356 C162.142136,20.1421356 157.142136,24.1421356 157.142136,24.1421356 C157.142136,24.1421356 161.142136,19.1421356 161.142136,14.1421356 C161.142136,9.14213562 157.142136,4.14213562 157.142136,4.14213562 Z" id="Rectangle-27" opacity="0.800000012" transform="translate(167.142136, 14.142136) rotate(45.000000) translate(-167.142136, -14.142136) "></path>
                                <path d="M141.071068,42.0710678 C141.071068,42.0710678 143.571068,44.0710678 146.071068,44.0710678 C148.571068,44.0710678 151.071068,42.0710678 151.071068,42.0710678 C151.071068,42.0710678 149.071068,44.8210678 149.071068,47.0710678 C149.071068,49.3210678 151.071068,52.0710678 151.071068,52.0710678 C151.071068,52.0710678 148.571068,50.0710678 146.071068,50.0710678 C143.571068,50.0710678 141.071068,52.0710678 141.071068,52.0710678 C141.071068,52.0710678 143.071068,49.5710678 143.071068,47.0710678 C143.071068,44.5710678 141.071068,42.0710678 141.071068,42.0710678 Z" id="Rectangle-27" opacity="0.400000006" transform="translate(146.071068, 47.071068) rotate(45.000000) translate(-146.071068, -47.071068) "></path>
                                <path d="M183.071068,56.0710678 C183.071068,56.0710678 185.571068,58.0710678 188.071068,58.0710678 C190.571068,58.0710678 193.071068,56.0710678 193.071068,56.0710678 C193.071068,56.0710678 191.071068,58.8210678 191.071068,61.0710678 C191.071068,63.3210678 193.071068,66.0710678 193.071068,66.0710678 C193.071068,66.0710678 190.571068,64.0710678 188.071068,64.0710678 C185.571068,64.0710678 183.071068,66.0710678 183.071068,66.0710678 C183.071068,66.0710678 185.071068,63.5710678 185.071068,61.0710678 C185.071068,58.5710678 183.071068,56.0710678 183.071068,56.0710678 Z" id="Rectangle-27" opacity="0.600000024" transform="translate(188.071068, 61.071068) rotate(45.000000) translate(-188.071068, -61.071068) "></path>
                            </g>
                        </g>
                    </g>
                </g>
            </g>
        </g>
    </g>
</svg>